# Max2Obj Version 4.0 Mar 10th, 2001
#
mtllib ./shadow_plain.mtl
g
# object Plane02 to come ...
#
v  -2.500000 0.000000 2.500000
v  2.500000 0.000000 2.500000
v  -2.500000 0.000000 -2.500000
v  2.500000 0.000000 -2.500000
# 4 vertices

vt  0.000000 0.000000 0.000000
vt  1.000000 0.000000 0.000000
vt  0.000000 0.000000 0.000000
vt  1.000000 0.000000 0.000000
vt  0.000000 0.000000 0.000000
vt  1.000000 0.000000 0.000000
vt  0.000000 1.000000 0.000000
vt  1.000000 1.000000 0.000000
# 8 texture vertices

vn  0.000000 1.000000 0.000000
vn  0.000000 1.000000 0.000000
vn  0.000000 1.000000 0.000000
vn  0.000000 1.000000 0.000000
# 4 vertex normals

g Plane02
usemtl 04_-_Defaultsdd
s 1
f 3/7/3 1/5/1 4/8/4
f 2/6/2 4/8/4 1/5/1
# 2 faces

g
